<svg width="175" height="63" viewBox="0 0 175 63" fill="none" xmlns="http://www.w3.org/2000/svg">
<path d="M82.7979 41.3496C82.5537 43.5957 81.748 45.3145 80.3809 46.5059C79.0234 47.6973 77.2119 48.293 74.9463 48.293C73.3643 48.293 71.9629 47.8975 70.7422 47.1064C69.5312 46.3154 68.5938 45.1973 67.9297 43.752C67.2656 42.2969 66.9287 40.6367 66.9189 38.7715V36.0029C66.9189 34.1084 67.251 32.4287 67.915 30.9639C68.5791 29.499 69.5312 28.3711 70.7715 27.5801C72.0215 26.7793 73.457 26.3789 75.0781 26.3789C77.3633 26.3789 79.165 26.999 80.4834 28.2393C81.8115 29.4697 82.583 31.1738 82.7979 33.3516H80.9814C80.5322 29.7285 78.5645 27.917 75.0781 27.917C73.1445 27.917 71.6016 28.6396 70.4492 30.085C69.3066 31.5303 68.7354 33.5273 68.7354 36.0762V38.6836C68.7354 41.1445 69.292 43.1074 70.4053 44.5723C71.5283 46.0371 73.042 46.7695 74.9463 46.7695C76.8311 46.7695 78.252 46.3203 79.209 45.4219C80.166 44.5137 80.7568 43.1562 80.9814 41.3496H82.7979ZM96.7725 48C96.5967 47.502 96.4844 46.7646 96.4355 45.7881C95.8203 46.5889 95.0342 47.209 94.0771 47.6484C93.1299 48.0781 92.124 48.293 91.0596 48.293C89.5361 48.293 88.3008 47.8682 87.3535 47.0186C86.416 46.1689 85.9473 45.0947 85.9473 43.7959C85.9473 42.2529 86.5869 41.0322 87.8662 40.1338C89.1553 39.2354 90.9473 38.7861 93.2422 38.7861H96.4209V36.9844C96.4209 35.8516 96.0693 34.9629 95.3662 34.3184C94.6729 33.6641 93.6572 33.3369 92.3193 33.3369C91.0986 33.3369 90.0879 33.6494 89.2871 34.2744C88.4863 34.8994 88.0859 35.6514 88.0859 36.5303L86.3281 36.5156C86.3281 35.2559 86.9141 34.167 88.0859 33.249C89.2578 32.3213 90.6982 31.8574 92.4072 31.8574C94.1748 31.8574 95.5664 32.3018 96.582 33.1904C97.6074 34.0693 98.1348 35.2998 98.1641 36.8818V44.3818C98.1641 45.915 98.3252 47.0625 98.6475 47.8242V48H96.7725ZM91.2646 46.7402C92.4365 46.7402 93.4814 46.457 94.3994 45.8906C95.3271 45.3242 96.001 44.5674 96.4209 43.6201V40.1338H93.2861C91.5381 40.1533 90.1709 40.4756 89.1846 41.1006C88.1982 41.7158 87.7051 42.5654 87.7051 43.6494C87.7051 44.5381 88.0322 45.2754 88.6865 45.8613C89.3506 46.4473 90.21 46.7402 91.2646 46.7402ZM110.176 33.6445C109.805 33.5762 109.409 33.542 108.989 33.542C107.896 33.542 106.968 33.8496 106.206 34.4648C105.454 35.0703 104.917 35.9541 104.595 37.1162V48H102.852V32.1504H104.565L104.595 34.6699C105.522 32.7949 107.012 31.8574 109.062 31.8574C109.551 31.8574 109.937 31.9209 110.22 32.0479L110.176 33.6445ZM111.699 39.8408C111.699 38.3174 111.992 36.9453 112.578 35.7246C113.174 34.5039 114.009 33.5566 115.083 32.8828C116.167 32.1992 117.393 31.8574 118.76 31.8574C120.869 31.8574 122.578 32.5996 123.887 34.084C125.195 35.5586 125.85 37.5166 125.85 39.958V40.3242C125.85 41.8574 125.552 43.2393 124.956 44.4697C124.37 45.6904 123.54 46.6328 122.466 47.2969C121.392 47.9609 120.166 48.293 118.789 48.293C116.689 48.293 114.98 47.5557 113.662 46.0811C112.354 44.5967 111.699 42.6338 111.699 40.1924V39.8408ZM113.457 40.3242C113.457 42.2188 113.945 43.7764 114.922 44.9971C115.908 46.208 117.197 46.8135 118.789 46.8135C120.371 46.8135 121.65 46.208 122.627 44.9971C123.613 43.7764 124.106 42.1699 124.106 40.1777V39.8408C124.106 38.6299 123.882 37.5215 123.433 36.5156C122.983 35.5098 122.354 34.7334 121.543 34.1865C120.732 33.6299 119.805 33.3516 118.76 33.3516C117.197 33.3516 115.923 33.9668 114.937 35.1973C113.95 36.418 113.457 38.0195 113.457 40.002V40.3242ZM131.152 32.1504L131.211 34.8604C131.807 33.8838 132.549 33.1416 133.438 32.6338C134.326 32.1162 135.308 31.8574 136.382 31.8574C138.081 31.8574 139.346 32.3359 140.176 33.293C141.006 34.25 141.426 35.6855 141.436 37.5996V48H139.692V37.585C139.683 36.1689 139.38 35.1143 138.784 34.4209C138.198 33.7275 137.256 33.3809 135.957 33.3809C134.873 33.3809 133.911 33.7227 133.071 34.4062C132.241 35.0801 131.626 35.9932 131.226 37.1455V48H129.482V32.1504H131.152ZM155.981 48C155.806 47.502 155.693 46.7646 155.645 45.7881C155.029 46.5889 154.243 47.209 153.286 47.6484C152.339 48.0781 151.333 48.293 150.269 48.293C148.745 48.293 147.51 47.8682 146.562 47.0186C145.625 46.1689 145.156 45.0947 145.156 43.7959C145.156 42.2529 145.796 41.0322 147.075 40.1338C148.364 39.2354 150.156 38.7861 152.451 38.7861H155.63V36.9844C155.63 35.8516 155.278 34.9629 154.575 34.3184C153.882 33.6641 152.866 33.3369 151.528 33.3369C150.308 33.3369 149.297 33.6494 148.496 34.2744C147.695 34.8994 147.295 35.6514 147.295 36.5303L145.537 36.5156C145.537 35.2559 146.123 34.167 147.295 33.249C148.467 32.3213 149.907 31.8574 151.616 31.8574C153.384 31.8574 154.775 32.3018 155.791 33.1904C156.816 34.0693 157.344 35.2998 157.373 36.8818V44.3818C157.373 45.915 157.534 47.0625 157.856 47.8242V48H155.981ZM150.474 46.7402C151.646 46.7402 152.69 46.457 153.608 45.8906C154.536 45.3242 155.21 44.5674 155.63 43.6201V40.1338H152.495C150.747 40.1533 149.38 40.4756 148.394 41.1006C147.407 41.7158 146.914 42.5654 146.914 43.6494C146.914 44.5381 147.241 45.2754 147.896 45.8613C148.56 46.4473 149.419 46.7402 150.474 46.7402ZM171.553 43.9717C171.553 43.1025 171.201 42.4043 170.498 41.877C169.805 41.3496 168.755 40.9395 167.349 40.6465C165.942 40.3438 164.849 40.002 164.067 39.6211C163.296 39.2305 162.72 38.7568 162.339 38.2002C161.968 37.6436 161.782 36.9697 161.782 36.1787C161.782 34.9287 162.305 33.8984 163.35 33.0879C164.395 32.2676 165.732 31.8574 167.363 31.8574C169.131 31.8574 170.547 32.2969 171.611 33.1758C172.686 34.0449 173.223 35.1826 173.223 36.5889H171.465C171.465 35.6611 171.074 34.8896 170.293 34.2744C169.521 33.6592 168.545 33.3516 167.363 33.3516C166.211 33.3516 165.283 33.6104 164.58 34.1279C163.887 34.6357 163.54 35.2998 163.54 36.1201C163.54 36.9111 163.828 37.5264 164.404 37.9658C164.99 38.3955 166.05 38.791 167.583 39.1523C169.126 39.5137 170.278 39.8994 171.04 40.3096C171.812 40.7197 172.383 41.2129 172.754 41.7891C173.125 42.3652 173.311 43.0635 173.311 43.8838C173.311 45.2217 172.769 46.291 171.685 47.0918C170.61 47.8926 169.204 48.293 167.466 48.293C165.62 48.293 164.121 47.8486 162.969 46.96C161.826 46.0615 161.255 44.9287 161.255 43.5615H163.013C163.081 44.5869 163.511 45.3877 164.302 45.9639C165.103 46.5303 166.157 46.8135 167.466 46.8135C168.687 46.8135 169.673 46.5449 170.425 46.0078C171.177 45.4707 171.553 44.792 171.553 43.9717Z" fill="white"/>
<path d="M11.45 51C9.58333 50.5333 8.2 49.5833 7.3 48.15C6.4 46.7167 5.95 44.7167 5.95 42.15C5.95 39.9167 6.26667 37.2833 6.9 34.25C7.4 31.8167 8.25 28.9167 9.45 25.55C10.6833 22.15 11.9333 19.3333 13.2 17.1C13.9667 15.8 14.6333 14.9 15.2 14.4C15.7667 13.9 16.3167 13.6833 16.85 13.75C17.5833 13.8833 18.1667 14.2 18.6 14.7C19.0333 15.1667 19.25 15.6833 19.25 16.25C19.25 16.9167 18.9667 17.4333 18.4 17.8C18.1333 18.1 17.7667 18.7 17.3 19.6C16.8333 20.4667 16.5333 21.0167 16.4 21.25L15.2 23.5C14.0333 26.8333 13.1667 29.4 12.6 31.2C12.0667 33 11.6333 34.9 11.3 36.9C10.7 39.6667 10.35 41.3167 10.25 41.85C10.1833 42.35 10.15 43.05 10.15 43.95C10.25 44.15 10.3833 44.4167 10.55 44.75C10.7167 45.05 10.8667 45.2833 11 45.45C11.1333 45.5833 11.2833 45.6667 11.45 45.7C12.05 45.9667 12.6 46.1 13.1 46.1C13.7 46.1 14.3667 45.9 15.1 45.5C15.2333 45.2333 15.4167 45.0333 15.65 44.9C15.9167 44.7333 16.0833 44.6333 16.15 44.6C16.2167 44.7 16.2667 44.75 16.3 44.75C16.4 44.75 16.4833 44.6333 16.55 44.4V44.35C16.55 44.1833 16.7 43.95 17 43.65C17.3333 43.5167 17.7833 43.1 18.35 42.4C18.95 41.6667 19.4833 40.9167 19.95 40.15C20.45 39.35 20.7 38.85 20.7 38.65C20.7 38.4833 20.7833 38.3 20.95 38.1C21.15 37.9 21.2833 37.7667 21.35 37.7C21.5833 37.4667 22.1667 36.45 23.1 34.65C24.0667 32.85 24.95 31.1167 25.75 29.45C26.25 27.8167 26.9333 25.5167 27.8 22.55C28.7 19.5833 29.2333 17.6833 29.4 16.85C29.4667 16.4167 29.5667 16.05 29.7 15.75C29.8333 15.45 29.9167 15.25 29.95 15.15C30.2167 14.95 30.5 14.85 30.8 14.85C31.3333 14.85 31.8833 15.0333 32.45 15.4C33.0167 15.7333 33.35 15.9333 33.45 16C33.6167 16.2 33.7 16.4833 33.7 16.85C33.7 17.25 33.55 18.0833 33.25 19.35C33.0833 20.0167 32.8667 21.0167 32.6 22.35C32.0667 24.45 31.4333 26.4333 30.7 28.3C29.9667 30.1667 29.0167 32.4167 27.85 35.05C27.7167 35.35 27.5667 35.6833 27.4 36.05C27.2333 36.3833 27.0667 36.7667 26.9 37.2V37.5C26.5 37.7333 26.1833 38.0833 25.95 38.55C25.85 38.7167 25.7167 38.95 25.55 39.25C25.4167 39.5167 25.2667 39.7 25.1 39.8C25 40.1 24.9 40.35 24.8 40.55C24.7333 40.75 24.6833 40.8833 24.65 40.95C24.6167 41.15 24.4667 41.3333 24.2 41.5C23.9333 41.6667 23.7667 41.7667 23.7 41.8C23.5667 41.8667 23.4667 42.0167 23.4 42.25C23.3333 42.4833 23.2667 42.6333 23.2 42.7C22.0667 44.4 20.6167 46.0333 18.85 47.6C17.0833 49.1667 15.5333 50.2 14.2 50.7C13.5333 50.9667 12.95 51.1 12.45 51.1C12.0167 51.1 11.6833 51.0667 11.45 51ZM46.2211 46.8C44.1211 46.7333 43.0711 45.55 43.0711 43.25C43.0711 42.6167 43.1211 42 43.2211 41.4C43.2878 40.6667 43.3211 40.15 43.3211 39.85V39.6V39.05C43.2211 38.3833 43.0044 38.05 42.6711 38.05C42.0711 38.05 40.9544 38.6333 39.3211 39.8C37.7211 40.9333 36.0378 42.3 34.2711 43.9C33.7378 44.4667 33.2878 45 32.9211 45.5C32.5878 45.9333 32.3378 46.2 32.1711 46.3C32.0044 46.4 31.7378 46.45 31.3711 46.45C30.9044 46.3833 30.3711 46.0333 29.7711 45.4C29.1711 44.7667 28.7711 44.2 28.5711 43.7C28.5711 42.7667 28.7378 41.8833 29.0711 41.05C29.4044 40.1833 29.9044 39.1 30.5711 37.8C30.8711 36.8 31.2544 35.8 31.7211 34.8C32.2211 33.6333 32.5711 32.75 32.7711 32.15C33.0044 31.5167 33.1544 30.8667 33.2211 30.2C33.2211 30.1667 33.2044 30.15 33.1711 30.15C33.1711 30.0167 33.2211 29.9 33.3211 29.8C33.4211 29.7 33.5378 29.65 33.6711 29.65C33.7378 29.55 33.9378 29.5 34.2711 29.5C35.1378 29.5 35.8878 29.7333 36.5211 30.2C37.1544 30.6667 37.4711 31.3833 37.4711 32.35C37.4711 32.85 37.3711 33.3333 37.1711 33.8C37.0044 34.2333 36.6711 34.9667 36.1711 36L35.6211 37.1C35.5211 37.3 35.3711 37.6 35.1711 38C34.9711 38.3667 34.8711 38.6 34.8711 38.7C35.7044 38.1333 36.6878 37.3833 37.8211 36.45C39.4878 35.1167 40.8544 34.0833 41.9211 33.35C42.9878 32.6167 43.7711 32.25 44.2711 32.25C44.7044 32.25 45.3044 32.5 46.0711 33C46.8711 33.4667 47.3378 33.9 47.4711 34.3C47.4711 34.5333 47.4378 34.8833 47.3711 35.35C47.3378 35.8167 47.3044 36.2333 47.2711 36.6L47.3211 38.15C47.3544 38.4167 47.3711 38.8167 47.3711 39.35C47.3711 40.4167 47.3044 41.1667 47.1711 41.6C47.2044 41.6333 47.2378 41.6833 47.2711 41.75C47.3044 41.8167 47.3211 41.8667 47.3211 41.9L47.2711 42C47.3044 42.3333 47.4878 42.8667 47.8211 43.6C48.1544 44.3333 48.3211 44.7333 48.3211 44.8C48.3211 45.1667 48.0711 45.5833 47.5711 46.05C47.1044 46.4833 46.6544 46.7333 46.2211 46.8ZM57.6203 27.1C57.287 26.8667 57.0203 26.5667 56.8203 26.2C56.6203 25.8333 56.5036 25.4833 56.4703 25.15C56.437 24.8167 56.4703 24.6167 56.5703 24.55C56.7703 24.3167 56.9703 24 57.1703 23.6C57.3703 23.2 57.5203 22.9167 57.6203 22.75C57.887 22.15 58.1036 21.7167 58.2703 21.45C58.5036 20.9833 58.7203 20.7333 58.9203 20.7C59.187 20.5667 59.4036 20.5 59.5703 20.5C60.0036 20.5 60.4703 20.65 60.9703 20.95C61.5036 21.25 61.9036 21.6 62.1703 22C62.4036 22.5333 62.5203 23 62.5203 23.4C62.5203 24.2 62.137 25.0833 61.3703 26.05C61.037 26.4833 60.637 26.8167 60.1703 27.05C59.7036 27.2833 59.237 27.4 58.7703 27.4C58.3036 27.4 57.9203 27.3 57.6203 27.1ZM52.2203 47.15C51.7536 46.6833 51.5203 45.85 51.5203 44.65C51.5203 44.0167 51.6036 43.5333 51.7703 43.2C51.7703 43.0333 51.8036 42.8333 51.8703 42.6C51.937 42.3667 51.9703 42.2167 51.9703 42.15C51.937 41.95 52.0703 41.4 52.3703 40.5C52.7703 39.6 53.2703 38.2167 53.8703 36.35C54.5036 34.4833 54.937 33.15 55.1703 32.35C55.1703 32.1833 55.237 32.05 55.3703 31.95C55.5036 31.8167 55.7036 31.7333 55.9703 31.7C56.337 31.5667 56.8036 31.7333 57.3703 32.2C57.937 32.6333 58.4036 33.1333 58.7703 33.7C58.9703 33.9 59.0703 34.1667 59.0703 34.5C59.0703 35 58.8536 35.7 58.4203 36.6C58.2536 36.9667 58.087 37.4167 57.9203 37.95C57.787 38.4833 57.6703 38.9833 57.5703 39.45C57.1703 40.35 56.8536 41.1833 56.6203 41.95C56.5203 42.3833 56.4536 42.7167 56.4203 42.95C56.187 44.1833 55.9703 44.9833 55.7703 45.35C55.5703 46.1833 55.287 46.8167 54.9203 47.25C54.5536 47.65 54.137 47.85 53.6703 47.85C53.1036 47.85 52.6203 47.6167 52.2203 47.15Z" fill="white"/>
</svg>
